<?xml version="1.0" encoding="UTF-8"?>
<svg id="Layer_1" data-name="Layer 1" xmlns="http://www.w3.org/2000/svg" viewBox="0 0 170 151">
  <defs>
    <style>
      .cls-1 {
        fill: #fff;
      }

      .cls-2 {
        fill: #ebebeb;
      }

      .cls-3 {
        fill: #3c9cd7;
      }

      .cls-4 {
        fill: #2062af;
      }
    </style>
  </defs>
  <path class="cls-4" d="m150.8.1c-43.8,0-87.6,0-131.5,0s-.2,0-.4,0c-1,0-1-.1-.9.9.2,2.1,5.2,55.7,5.5,59.1,0,.2,0,.3,0,.5.3,3.6,6.8,73.5,6.9,75,0,.5.2.7.7.9,1.7.5,39,10.5,53.1,14.3.5.1.9.1,1.4,0,9.1-2.5,50.5-13.6,53-14.3.4-.1.8-.2.8-.8.2-2.6,12.4-134.2,12.5-135.5-.4-.2-.8,0-1.2,0Zm-21.5,126.8c0,.4-.2.5-.6.6-2.2.6-41.1,11.1-42.6,11.5-1.1.3-1.1.3-1.1-.8,0-4.9,0-126.4,0-126.6,0-.3.2-.4.4-.4.2,0,.4,0,.6,0h52.3c.1,0,.3,0,.4,0,.4,0,.6.2.6.6,0,.9-10,113.1-10,115.1Z"/>
  <path class="cls-3" d="m139.3,11.8c0,.9-10,113.1-10,115.1,0,.4-.2.5-.6.6-2.2.6-41.1,11.1-42.6,11.5-1.1.3-1.1.3-1.1-.8,0-4.9,0-126.4,0-126.6,0-.3.2-.4.4-.4.2,0,.4,0,.6,0h52.3c.1,0,.3,0,.4,0,.4,0,.6.2.6.6Z"/>
  <g>
    <path class="cls-2" d="m85,45c0,10.2,0,21.7,0,33.1-.2,0-.3,0-.5,0-7.2,0-14.3,0-21.5,0-5.2,0-10.3,0-15.5,0,0,0-.2,0-.3,0-.4,0-.6,0-.6-.5,0-1-.2-2.1-.3-3.1-.2-2.7-.4-5.4-.6-8.1-.1-1.3-.2-2.6-.3-3.9,0-.8,0-.8.6-1.1,3.5-1.4,6.9-2.9,10.4-4.3,4.3-1.8,8.6-3.6,12.9-5.4,5.1-2.1,10.1-4.2,15.2-6.3.2,0,.3-.1.5-.2Z"/>
    <path class="cls-2" d="m85,105.7v18.3c-1.9-.7-3.9-1.2-5.9-1.8-9.4-2.8-18.8-5.6-28.2-8.3-.5-.1-.8-.4-.8-.9-.1-1.7-.3-3.5-.4-5.2-.3-3.3-.6-6.7-.9-10-.2-2.4-.4-4.8-.6-7.2,0-.8-.1-1.7-.2-2.5,0-.7,0-.7.7-.7,2.5,0,5,0,7.5,0,2.8,0,5.6,0,8.3,0,0,0,.2,0,.3,0,0,0,0,0,0,0h0c0,.2.2.2.3.2.2,1.1.2,2.1.3,3.2.3,3.2.5,6.5.8,9.7,0,.4,0,.6.6.8,1.5.3,3,.6,4.4,1,4.2,1.3,8.5,2.1,12.7,3.3.3,0,.6.1.9.1Z"/>
    <path class="cls-1" d="m128.2,27.4c-.2,1.8-.4,3.5-.5,5.3-.4,3.4-.7,6.8-1,10.2,0,.7-.3,1-.9,1.3-5.1,2.2-10.3,4.3-15.4,6.5-7.9,3.4-15.8,6.8-23.7,10.2-.3.1-.7.3-1,.4,0,0,0,.1,0,.2h1.1c12.3,0,24.6,0,36.9,0,.3,0,.6,0,.8,0,.5,0,.6.2.5.6,0,0,0,.2,0,.3l-1,11.2c-.4,4.6-.8,9.3-1.2,13.9-.3,3.5-.6,6.9-.9,10.4-.2,2.6-.5,5.1-.7,7.7s-.5,5.1-.7,7.7c0,.3-.1.5-.5.6-.8.2-1.5.5-2.3.7-2.5.7-5,1.5-7.6,2.2-3,.9-5.9,1.7-8.9,2.6-2.6.7-5.2,1.5-7.8,2.2-1.8.5-3.7,1.1-5.5,1.7-.9.3-1.8.7-2.7.7,0,0-.1,0-.2,0v-18.3c.1,0,.2,0,.4,0,.8,0,1.5-.4,2.2-.6,5.5-1.5,10.9-3.1,16.4-4.6.8-.2.8,0,.8-1.1,0-1.8.2-3.6.3-5.3.3-4.9.6-9.9.9-14.8,0-1.1.2-1.1-1.1-1.1-6.2,0-12.4,0-18.7,0-.3,0-.6,0-.9,0-.1,0-.2,0-.3,0,0-11.4,0-22.9,0-33.1.1,0,.2-.1.3-.2.7-.2,1.3-.5,1.9-.9h-1.9c-.1,0-.2,0-.3,0,0-6.3,0-12,0-16.9.1,0,.2,0,.4,0,.3,0,.7,0,1,0,13.6,0,27.1,0,40.7,0,.2,0,.5,0,.7,0,.3,0,.4.1.4.5Z"/>
    <path class="cls-2" d="m85,27c0,4.9,0,10.7,0,16.9-.3,0-.6,0-.8,0-13.1,0-26.1,0-39.2,0-1.2,0-1.1.2-1.3-1.1-.6-4.7-1.2-9.4-1.8-14.1,0-.5,0-1-.1-1.5.3-.2.7-.1,1.1-.1,10.7,0,21.3,0,32,0,3.2,0,6.3,0,9.5,0,.2,0,.4,0,.7,0Z"/>
  </g>
</svg>