<?xml version="1.0" encoding="UTF-8"?>
<svg id="Layer_1" data-name="Layer 1" xmlns="http://www.w3.org/2000/svg" viewBox="0 0 170 151">
  <defs>
    <style>
      .cls-1 {
        fill: #a259ff;
      }

      .cls-2 {
        fill: #ff7262;
      }

      .cls-3 {
        fill: #1abcfe;
      }

      .cls-4 {
        fill: #ffa49a;
      }

      .cls-5 {
        fill: #0acf83;
      }
    </style>
  </defs>
  <path class="cls-2" d="m35.1,27.4v-4.5c.2-.3.1-.8.2-1.1.3-2.4,1-4.8,2.1-7C42.1,5.2,49.9.2,60.6,0c11.4-.1,22.7,0,34.1,0,5.7,0,11.5-.1,17.2,0,1.1,0,2.1.1,3.1.3,5.3,1,9.8,3.4,13.5,7.2,4,4.2,6.3,9.2,6.9,14.9.1,1.4.2,2.8,0,4.2-.1,1.7-.4,3.4-.8,5-2,7-6.1,12.2-12.5,15.6-3.1,1.7-6.4,2.7-10,2.9-.6,0-1.2,0-1.9,0,0,0-.2,0-.3,0-.8,0-1.6-.1-2.3,0,0,0-.2,0-.3,0-7.3,0-14.5,0-21.8,0-.2,0-.3,0-.5,0,0,0-.2,0-.2,0-8.9,0-17.8,0-26.6,0-.7-.2-1.3-.1-2-.3-2.9-.5-5.7-1.4-8.2-2.8-5.3-2.9-9.1-7.2-11.4-12.7-.7-1.7-1.2-3.5-1.5-5.3-.1-.7-.2-1.3-.3-2Z"/>
  <path class="cls-1" d="m85.4,77.8c0,4,0,8,0,12.1,0,3.4,0,6.7,0,10.1,0,.3,0,.5,0,.8-.1,0-.2,0-.3,0-.2,0-.3,0-.5,0-8.2,0-16.5,0-24.7,0-.2,0-.3,0-.5,0-.3,0-.6,0-.8,0-.2-.2-.5-.2-.8-.2-8-.9-14.2-4.7-18.6-11.4-1.8-2.6-2.9-5.5-3.5-8.6-.2-.9-.3-1.9-.5-2.8,0-1.4,0-2.8,0-4.2.1,0,.1-.2.1-.3,0-1.5.4-3,.8-4.5,3-9.7,9.5-15.6,19.4-17.9,1-.2,2.1-.3,3.1-.4,8.9,0,17.8,0,26.6,0,0,0,.2,0,.2,0,0,2.3,0,4.6,0,6.8,0,5.4,0,10.8,0,16.1-.2,1.5,0,2.9,0,4.4Z"/>
  <path class="cls-5" d="m58.5,100.7c.3,0,.6,0,.8,0,.1,0,.3,0,.4,0,8.3,0,16.6,0,24.8,0,.1,0,.3,0,.4,0,.1,0,.2,0,.3,0,0,.3,0,.5,0,.8,0,7.7,0,15.4,0,23.2,0,.8.2,1.7,0,2.4-.1.8.2,1.5-.3,2.3-.3.5-.2,1.1-.3,1.7-.4,2.1-1.1,4-2,5.9-1.3,2.9-3.2,5.3-5.5,7.4-2.4,2.3-5.2,4-8.3,5.2-.9.4-1.9.8-2.9.9-1.2.2-2.4.5-3.7.5,0,0-.1,0-.2,0h-4.4c-.3-.3-.8-.1-1.2-.2-2.5-.4-4.9-1-7.2-2.1-6.4-3.1-10.8-8-13.2-14.7-.5-1.5-.9-3-1.1-4.6,0-.5,0-1-.2-1.4,0-1.5,0-2.9,0-4.4,0,0,.1-.1.1-.2,0-1,.2-1.9.4-2.9.5-2.5,1.4-5,2.7-7.2,4.6-7.6,11.3-11.8,20.2-12.7Z"/>
  <path class="cls-3" d="m85.4,77.8c0-1.5-.2-2.9,0-4.4.2-.4.1-.8.2-1.2.3-2.4,1-4.7,2-6.9,1.4-3.1,3.3-5.7,5.8-8,1.4-1.3,2.9-2.5,4.6-3.4,1.4-.8,2.9-1.5,4.5-2.1,1.1-.4,2.3-.7,3.5-.9.7-.1,1.4-.1,2-.3.8,0,1.5-.1,2.3-.2,0,0,.2,0,.3,0,.6,0,1.2,0,1.8.2,3,.2,6,.9,8.7,2.2,2.2,1,4.2,2.4,6.1,4,2.1,1.8,3.8,4,5.2,6.3,1.2,1.9,2,4.1,2.6,6.3.5,2.2.9,4.4.9,6.6-.1,5.8-2,11.1-5.7,15.6-3.7,4.5-8.5,7.4-14.2,8.7-2.5.6-5,.6-7.6.5-2.5-.2-4.9-.8-7.1-1.8-6.6-2.8-11.2-7.5-14-14.1-.9-2.2-1.4-4.4-1.7-6.8,0,0,0-.1,0-.2Z"/>
  <path class="cls-4" d="m107.9,50.5s0,0,0-.1c.8-.2,1.6-.1,2.3,0-.8,0-1.5.1-2.3.2Z"/>
  <path class="cls-4" d="m112.3,50.5c-.6-.2-1.2,0-1.8-.2.6-.1,1.2,0,1.9,0,0,0,0,.1,0,.2Z"/>
  <path class="cls-3" d="m85,100.7c-.1,0-.3,0-.4,0-8.3,0-16.6,0-24.8,0-.1,0-.3,0-.4,0,.2,0,.3,0,.5,0,8.2,0,16.5,0,24.7,0,.2,0,.3,0,.5,0Z"/>
</svg>