<?xml version="1.0" encoding="UTF-8"?>
<svg id="Layer_1" data-name="Layer 1" xmlns="http://www.w3.org/2000/svg" viewBox="0 0 170 151">
  <defs>
    <style>
      .cls-1 {
        fill: #fff;
      }

      .cls-2 {
        fill: #f16529;
      }

      .cls-3 {
        fill: #ebebeb;
      }

      .cls-4 {
        fill: #e44d26;
      }
    </style>
  </defs>
  <path class="cls-4" d="m150.8.1c-43.8,0-87.6,0-131.5,0s-.2,0-.4,0c-1,0-1-.1-.9.9.2,2.1,5.2,55.7,5.5,59.1,0,.2,0,.3,0,.5.3,3.6,6.8,73.5,6.9,75,0,.5.2.7.7.9,1.7.5,39,10.5,53.1,14.3.5.1.9.1,1.4,0,9.1-2.5,50.5-13.6,53-14.3.4-.1.8-.2.8-.8.2-2.6,12.4-134.2,12.5-135.5-.4-.2-.8,0-1.2,0Zm-21.5,126.8c0,.4-.2.5-.6.6-2.2.6-41.1,11.1-42.6,11.5-1.1.3-1.1.3-1.1-.8,0-4.9,0-126.4,0-126.6,0-.3.2-.4.4-.4.2,0,.4,0,.6,0h52.3c.1,0,.3,0,.4,0,.4,0,.6.2.6.6,0,.9-10,113.1-10,115.1Z"/>
  <path class="cls-2" d="m139.3,11.8c0,.9-10,113.1-10,115.1,0,.4-.2.5-.6.6-2.2.6-41.1,11.1-42.6,11.5-1.1.3-1.1.3-1.1-.8,0-4.9,0-126.4,0-126.6,0-.3.2-.4.4-.4.2,0,.4,0,.6,0h52.3c.1,0,.3,0,.4,0,.4,0,.6.2.6.6Z"/>
  <path class="cls-3" d="m84.6,76.2c-6.7,0-13.4,0-20.1-.1-4.9,0-9.7,0-14.6,0-1.2,0-1.6-.3-1.7-1.6,0-2-1.4-16.2-1.8-20.3-.2-1.6-.2-3.2-.4-4.9-.7-6.7-1.1-13.5-1.7-20.2-.1-1.7.5-1.8,1.9-1.8,12.4,0,24.9,0,37.3,0,.4,0,.8,0,1.2,0,0,0,0,.2,0,.2,0,5.3,0,10.6,0,15.9,0,0,0,.1,0,.2-7.2,0-14.3,0-21.5-.1-1.2,0-1.2.6-1.1,1.5.3,4.5.6,9,.9,13.5,0,.9.4,1.5,1.4,1.5,6.8,0,13.6,0,20.3-.1,0,0,0,.2,0,.3,0,5.3,0,10.6,0,15.9,0,0,0,.1,0,.2Z"/>
  <path class="cls-3" d="m85,118.3c-.1.1-11.4-2.5-16.8-4-5.2-1.4-10.4-2.9-15.6-4.2-.8-.2-1.1-.6-1.1-1.3-.3-2.6-1.9-22-2.3-24-.1-.6.7-.4,1.1-.4,4.6,0,9.2,0,13.8,0,1.7,0,1.4,1.3,1.5,2.2.4,3.1.6,6.3.8,9.4,0,.9.2,1.4,1.2,1.6,5.2,1.3,10.3,2.8,15.4,4.2.5.1,1,0,1.6,0h0c0,5,0,9.8,0,14.7,0,.7-.3,1.5.4,2Z"/>
  <path class="cls-1" d="m84.6,101.8c4.7-1.2,13.2-3.5,16-4.2.6-.1,1-.6,1-1.2l2.5-18.9s-.2-1.4-1.2-1.4c-5.7,0-11.3,0-17,0-.5,0-.9,0-1.4,0,0-5.3,0-10.6,0-15.9.3,0,.6-.2,1-.2,11.5,0,23,0,34.5,0,1.5,0,2.1.4,1.7,1.9-.7,2.2-3.7,43-4.3,46.8-.1.7-.4,1-1,1.2-10.3,2.8-20.6,5.6-30.8,8.5-.2,0-.4,0-.6,0-.7-.6-.4-1.3-.4-2,0-4.8,0-9.7,0-14.5Z"/>
  <path class="cls-1" d="m84.6,43.4c0-5.3,0-10.6,0-15.9,13,0,26.1,0,39.1,0,1.1,0,1.2.2,1,1.4-.5,3.3-1.4,12.6-1.4,14,0,.6-.3.8-.8.8-.4,0-.8,0-1.2,0-11.7,0-23.3,0-35,0-.6,0-1.2,0-1.8,0Z"/>
</svg>