<?xml version="1.0" encoding="UTF-8"?>
<svg id="Layer_1" data-name="Layer 1" xmlns="http://www.w3.org/2000/svg" viewBox="0 0 170 151">
  <defs>
    <style>
      .cls-1 {
        fill: #fff;
      }

      .cls-2 {
        fill: #e4a126;
      }

      .cls-3 {
        fill: #ebebeb;
      }

      .cls-4 {
        fill: #f0be25;
      }
    </style>
  </defs>
  <path class="cls-2" d="m150.8.1c-43.8,0-87.6,0-131.5,0s-.2,0-.4,0c-1,0-1-.1-.9.9.2,2.1,5.2,55.7,5.5,59.1,0,.2,0,.3,0,.5.3,3.6,6.8,73.5,6.9,75,0,.5.2.7.7.9,1.7.5,39,10.5,53.1,14.3.5.1.9.1,1.4,0,9.1-2.5,50.5-13.6,53-14.3.4-.1.8-.2.8-.8.2-2.6,12.4-134.2,12.5-135.5-.4-.2-.8,0-1.2,0Zm-21.5,126.8c0,.4-.2.5-.6.6-2.2.6-41.1,11.1-42.6,11.5-1.1.3-1.1.3-1.1-.8,0-4.9,0-126.4,0-126.6,0-.3.2-.4.4-.4.2,0,.4,0,.6,0h52.3c.1,0,.3,0,.4,0,.4,0,.6.2.6.6,0,.9-10,113.1-10,115.1Z"/>
  <path class="cls-4" d="m139.3,11.8c0,.9-10,113.1-10,115.1,0,.4-.2.5-.6.6-2.2.6-41.1,11.1-42.6,11.5-1.1.3-1.1.3-1.1-.8,0-4.9,0-126.4,0-126.6,0-.3.2-.4.4-.4.2,0,.4,0,.6,0h52.3c.1,0,.3,0,.4,0,.4,0,.6.2.6.6Z"/>
  <path class="cls-3" d="m68.9,40.6l-3.2,25.6,19.2.2v15.8h-37.6l6-59.1h31.6c0,4.8,0,10.7,0,17.4h-16Z"/>
  <polygon class="cls-3" points="85 108.6 85 126.5 83.5 126.9 49.6 116.3 47.8 91.3 63.6 91.3 66.4 104.6 83.5 109.1 85 108.6"/>
  <polygon class="cls-1" points="122.2 66.7 117.4 117.3 85 126.5 85 108.6 102 103.2 103.3 82.2 85 82.2 85 66.4 122.2 66.7"/>
  <path class="cls-1" d="m102.7,40.6h-17.8c0-6.7,0-12.7,0-17.4h34.4l3.2,34.7h-17c0,0-2.8-17.3-2.8-17.3Z"/>
</svg>