<?xml version="1.0" encoding="UTF-8"?>
<svg id="Layer_1" data-name="Layer 1" xmlns="http://www.w3.org/2000/svg" viewBox="0 0 170 151">
  <defs>
    <style>
      .cls-1 {
        fill: #f7df1e;
      }
    </style>
  </defs>
  <path class="cls-1" d="m160.4,150.8H9.6c0-49.7,0-99.3,0-149,0-1.9-.3-1.7,1.6-1.7,49.1,0,98.3,0,147.4,0,1.9,0,1.6-.3,1.6,1.7,0,49.7,0,99.3,0,149Zm-35.3-11.8c5.2.3,10.1-.8,14.6-3.5,3.8-2.3,6.5-5.5,7.9-9.7,1-3.2,1.3-6.5.8-9.9-.6-4-2-7.4-4.8-10.3-3.8-4-8.7-6.2-13.7-8.4-3.5-1.6-7.3-2.8-10.3-5.3-1.6-1.3-2.5-4-2-6,1.1-4.3,4.9-5.2,8.7-4.6,3.1.5,5.2,2.4,6.6,5.1.2.4.4.9,1,.5,3.3-2.1,6.7-4.3,10-6.4.3-.2.7-.5.4-1.1-3.6-5.8-8.5-9.4-15.5-10.3-4.4-.6-8.7-.4-12.9,1.1-3.7,1.3-6.7,3.4-9,6.7-3.2,4.6-3.7,9.8-2.9,15.1.5,3.2,1.9,6,4,8.5,3.3,3.8,7.6,6.1,12.1,8.1,3.7,1.6,7.5,3.1,10.9,5.2,4.7,2.8,4.3,9,0,11.4-3.2,1.8-6.6,1.9-10.1,1.1-3.9-.9-6.6-3.4-8.9-6.4-1.2-1.6-1.3-1.7-3-.7-3,1.7-6,3.5-9,5.2-.5.3-.8.4-.4,1,2.5,4.4,5.9,8.1,10.5,10.5,4.7,2.5,9.7,3.7,15.1,3.3Zm-47.6-44.9c0,6.4,0,12.9,0,19.3,0,2.2.1,4.3-.3,6.5-.4,2.3-1.1,4.4-3.3,5.7-1.2.7-2.5.5-3.7.7-2.2.4-4-.4-5.5-1.9-1.5-1.4-2.7-2.9-3.6-4.7-.2-.5-.5-.6-1-.3-3.4,2.1-6.8,4.1-10.1,6.2-.7.4-.8.9-.3,1.6,1.2,2.1,2.6,3.9,4.3,5.7,1.6,1.7,3.5,3.1,5.5,4,3,1.4,6.1,2.2,9.5,2.2,4,0,8-.1,11.8-1.9,4.5-2,7.5-5.3,9.2-9.8,1.4-3.4,1.6-7.1,1.6-10.7,0-15.4,0-30.8,0-46.2,0-1-.3-1.2-1.2-1.2-3.9,0-7.9,0-11.8,0-1,0-1.2.3-1.1,1.2,0,7.9,0,15.7,0,23.6Z"/>
  <path d="m125,139c-5.4.3-10.4-.9-15.1-3.3-4.6-2.4-7.9-6-10.5-10.5-.3-.6,0-.7.4-1,3-1.7,6-3.5,9-5.2,1.8-1,1.8-1,3,.7,2.3,3.1,5,5.6,8.9,6.4,3.5.8,6.9.7,10.1-1.1,4.2-2.4,4.6-8.5,0-11.4-3.5-2.1-7.2-3.6-10.9-5.2-4.5-2-8.8-4.3-12.1-8.1-2.1-2.4-3.5-5.3-4-8.5-.9-5.3-.4-10.5,2.9-15.1,2.3-3.3,5.3-5.4,9-6.7,4.2-1.4,8.4-1.7,12.9-1.1,7,.9,11.9,4.5,15.5,10.3.4.6,0,.9-.4,1.1-3.3,2.2-6.6,4.3-10,6.4-.6.4-.8-.1-1-.5-1.4-2.7-3.5-4.6-6.6-5.1-3.8-.6-7.5.3-8.7,4.6-.5,2,.4,4.7,2,6,3,2.5,6.8,3.7,10.3,5.3,4.9,2.2,9.8,4.4,13.7,8.4,2.8,2.9,4.3,6.4,4.8,10.3.5,3.4.3,6.7-.8,9.9-1.4,4.3-4.1,7.5-7.9,9.7-4.5,2.7-9.4,3.8-14.6,3.5Z"/>
  <path d="m77.5,94.1c0-7.9,0-15.7,0-23.6,0-.9.2-1.2,1.1-1.2,3.9,0,7.9,0,11.8,0,.9,0,1.2.2,1.2,1.2,0,15.4,0,30.8,0,46.2,0,3.6-.2,7.3-1.6,10.7-1.8,4.5-4.8,7.8-9.2,9.8-3.8,1.7-7.7,1.9-11.8,1.9-3.4,0-6.5-.7-9.5-2.2-2.1-1-3.9-2.4-5.5-4-1.7-1.7-3.1-3.6-4.3-5.7-.5-.8-.4-1.2.3-1.6,3.4-2.1,6.8-4.1,10.1-6.2.5-.3.8-.2,1,.3.9,1.8,2.1,3.4,3.6,4.7,1.6,1.5,3.3,2.2,5.5,1.9,1.2-.2,2.5,0,3.7-.7,2.2-1.3,2.9-3.4,3.3-5.7.4-2.2.3-4.3.3-6.5,0-6.4,0-12.9,0-19.3Z"/>
</svg>