<?xml version="1.0" encoding="UTF-8"?>
<svg id="Layer_1" data-name="Layer 1" xmlns="http://www.w3.org/2000/svg" viewBox="0 0 170 151">
  <defs>
    <style>
      .cls-1 {
        fill: #f36662;
      }

      .cls-2 {
        fill: #930f17;
      }

      .cls-3 {
        fill: #990e16;
      }

      .cls-4 {
        fill: #ec1622;
      }
    </style>
  </defs>
  <polygon class="cls-4" points="55.2 75.4 106.8 49.8 102.6 109 55.2 75.4"/>
  <path class="cls-4" d="m158.7,63.2c0,0,0,.1-.1.2l-51.8-13.6,21.5-31.9,30.4,45.2Z"/>
  <polygon class="cls-1" points="55.2 75.4 26.5 116.8 21.5 123.9 20.7 115 17 73 55.2 75.4"/>
  <path class="cls-4" d="m163.9,54.4l-36.5,94,9.6-62.5c10.3-7.6,17.3-16.2,21.6-22.4,0,0,0-.1.1-.2,0,0,0,0,0,0h0c0,0,0-.1.1-.2.4-.5.7-1,1-1.5,0-.1.1-.2.2-.3.7-1.1,1.4-2.2,1.9-3.1,0,0,0-.1.1-.2,0,0,.1-.2.2-.3,0-.1.1-.2.2-.3h0c0-.1.1-.2.2-.3.2-.3.3-.6.5-.9.4-.8.7-1.4.8-1.6,0,0,0,0,0,0Z"/>
  <path class="cls-1" d="m127.3,148.4l-64-25.3c25.3-5.2,38.5-13.5,39.3-14h0s24.7,39.3,24.7,39.3Z"/>
  <path class="cls-1" d="m17,73l-.8-19.9-3.3,5.8s-8.7,21.5-9.5,27.3l13.7-13.2Z"/>
  <path class="cls-1" d="m118.4,2.7l9.9,15.3,24.8-5s-8.3-3.3-19-6.2c-6.1-1.6-9-2.6-10.3-3.1s-2.1-.7-3.2-.8l-2.2-.2Z"/>
  <path class="cls-3" d="m158.6,63.4c-4.3,6.3-11.3,14.8-21.6,22.4l-30.2-36,51.8,13.6Z"/>
  <path class="cls-3" d="m137,85.8l-9.6,62.5-24.7-39.4c23.6-9.9,34.3-23.2,34.3-23.2Z"/>
  <path class="cls-2" d="m137,85.8s-10.8,13.2-34.3,23.2l4.1-59.2,30.2,36Z"/>
  <path class="cls-2" d="m102.6,109h0c-.8.5-14,8.9-39.3,14.1l-8.1-47.7,47.4,33.6Z"/>
  <path class="cls-2" d="m17,73L2.9,109.4s-4.6-5.4.4-23.2l13.7-13.2Z"/>
  <path class="cls-2" d="m169,37.2s-.4,7.3-5.1,17.2c0,0,0,0,0,0,0,0,0,0,0,0-.3.5-.5,1.1-.8,1.6-.2.3-.3.6-.5.9,0,.1-.1.2-.2.3h0c0,.1-.1.2-.2.3,0,0-.1.2-.2.3,0,0,0,.1-.1.2-.1.2-.2.4-.4.6,0,.2-.2.3-.3.5-.7,1.1-1.5,2.4-2.4,3.8,0,0,0,.1-.1.2h0s0,0,0,0l-30.4-45.2,40.7,19.2Z"/>
  <path class="cls-3" d="m128.3,18l24.8-5s8.7,3.3,13.2,10.8c0,0,2.8,4.5,2.6,13.4l-40.7-19.2Z"/>
  <path class="cls-3" d="m21.5,123.9c-13.7-3.7-18.6-14.5-18.6-14.5l14.1-36.4,3.8,42,.8,8.9Z"/>
  <polygon class="cls-3" points="127.3 148.4 21.5 123.9 26.5 116.8 55.2 75.4 63.3 123.1 127.3 148.4"/>
  <path class="cls-4" d="m17.8,59.3s-.4-22.3,38.1-43C94.4-4.4,117.9,2.2,122.1,11.3s-5.4,28.6-35.2,45.1-67.4,21.1-69.1,2.9Z"/>
</svg>