<?xml version="1.0" encoding="UTF-8"?>
<svg id="Layer_1" data-name="Layer 1" xmlns="http://www.w3.org/2000/svg" viewBox="0 0 152 152">
  <defs>
    <style>
      .cls-1 {
        fill: #fefefe;
      }

      .cls-1, .cls-2, .cls-3 {
        stroke-width: 0px;
      }

      .cls-2 {
        fill: #007acb;
      }

      .cls-3 {
        fill: #fcfdfe;
      }
    </style>
  </defs>
  <path class="cls-2" d="m150.6.3s1.9.3,1.9,1.9c0,49.4,0,98.8,0,148.2,0,1.5-.3,1.9-1.9,1.9-49.4,0-98.8,0-148.2,0-1.5,0-1.9-.3-1.9-1.9,0-49.4,0-98.8,0-148.2,0-1.5,1.9-1.9,1.9-1.9h148.2Z"/>
  <path class="cls-3" d="m117.1,69.6c7.6-.1,13.5,2.9,17.9,9.1,1.4,1.9,1.4,1.9-.5,3.2-2.3,1.6-4.6,3.1-6.9,4.6-2.3,1.5-1.8,1.8-3.6-.6-2.2-3.1-5.2-4.2-8.9-3.8-2.4.3-4.4,1.4-5.2,3.8-.9,2.6-.4,4.9,1.6,6.9,1.6,1.6,3.7,2.4,5.7,3.3,4.2,1.9,8.5,3.7,12.5,6.1,4.9,2.9,8.6,6.6,10,12.3,3,11.8-2.6,21.5-14.4,24.5-9,2.3-17.8,1.3-25.8-3.8-3.3-2.1-5.7-5.1-7.8-8.4-.5-.8-.3-1.3.5-1.7,3-1.7,6-3.4,9-5.2,1.2-.7,1.7-.7,2.5.5,2.5,3.7,5.7,6.4,10.4,7.1,2.7.4,5.4.3,8-.9,2.2-1,3.8-2.6,4.1-5.2.3-2.8-.7-4.9-3-6.4-3.3-2.2-7-3.5-10.5-5.2-4.3-1.9-8.6-4-11.9-7.5-5.6-6-6.6-13-4.1-20.4,2.5-7.4,8.5-10.9,16-12,.7,0,1.5-.1,2.2-.2.7,0,1.5,0,2.2,0Z"/>
  <path class="cls-2" d="m53.4,83.1c-.2,0-.5-.2-.7-.2.3,0,.6-.2.7.2Z"/>
  <polygon class="cls-1" points="33.7 83 33.7 69.6 87.4 69.6 87.4 83 68 83 68 139 53.5 139 53.5 83.1 33.7 83"/>
</svg>