<?xml version="1.0" encoding="UTF-8"?>
<svg id="Layer_1" data-name="Layer 1" xmlns="http://www.w3.org/2000/svg" viewBox="0 0 170 159">
  <defs>
    <style>
      .cls-1 {
        fill: #e20a48;
      }

      .cls-2 {
        fill: #eaeaea;
      }
    </style>
  </defs>
  <path class="cls-2" d="m96.2,27.9l-19.5,34.2c-.6,1.1-2,1.4-3,.8l-13.3-7.8c-1-.6-1.4-1.9-.8-3l23.9-42c.8-1.5,3-1.5,3.8,0l8.9,15.6c.4.7.4,1.5,0,2.2Z"/>
  <path class="cls-2" d="m53.6,98.1c1,.6,1.4,1.9.8,3l-27.1,47.5c-.4.7-1.1,1.1-1.9,1.1H7.7c-1.7,0-2.8-1.8-1.9-3.3l31.5-55.3c.6-1.1,2-1.4,3-.8l13.3,7.8Z"/>
  <path class="cls-1" d="m110,119l-64.6-37.6c-1-.6-1.4-1.9-.8-3l7.6-13.4c.6-1.1,2-1.4,3-.8l41.8,24.3c.3.2.6.5.8.8l15.2,26.7c1.1,2-1.1,4.1-3,3Z"/>
  <path class="cls-2" d="m163.3,149.8h-17.8c-.8,0-1.5-.4-1.9-1.1l-51.4-90.2c-.4-.7-.4-1.5,0-2.2l8.9-15.6c.9-1.5,3-1.5,3.8,0l44.6,78.3,15.7,27.6c0,.1.1.2.2.4.5,1.4-.5,2.9-2.1,2.9Z"/>
</svg>